<?xml version="1.0" standalone="no"?>
<!DOCTYPE svg PUBLIC "-//W3C//DTD SVG 20010904//EN"
 "http://www.w3.org/TR/2001/REC-SVG-20010904/DTD/svg10.dtd">
<svg version="1.0" xmlns="http://www.w3.org/2000/svg"
 width="500.000000pt" height="500.000000pt" viewBox="0 0 500.000000 500.000000"
 preserveAspectRatio="xMidYMid meet">
<metadata>
Created by potrace 1.11, written by Peter Selinger 2001-2013
</metadata>
<g transform="translate(0.000000,500.000000) scale(0.100000,-0.100000)"
fill="#000000" stroke="none">
<path d="M2210 4989 c-463 -56 -899 -237 -1272 -529 -107 -83 -315 -291 -398
-398 -160 -205 -312 -476 -394 -702 -47 -130 -98 -330 -123 -475 -26 -158 -26
-612 0 -770 73 -436 247 -831 517 -1177 83 -107 291 -315 398 -398 205 -160
476 -312 702 -394 130 -47 330 -98 475 -123 158 -26 612 -26 770 0 436 73 831
247 1177 517 107 83 315 291 398 398 215 275 374 591 460 916 56 208 72 331
77 581 6 256 -7 409 -53 615 -79 353 -252 715 -484 1012 -83 107 -291 315
-398 398 -275 215 -591 374 -916 460 -221 59 -328 72 -606 76 -140 1 -289 -2
-330 -7z m545 -260 c435 -45 864 -234 1212 -533 425 -366 696 -876 763 -1436
14 -122 14 -398 0 -520 -61 -506 -283 -964 -645 -1325 -361 -362 -819 -584
-1325 -645 -122 -14 -398 -14 -520 0 -506 61 -964 283 -1325 645 -362 361
-584 819 -645 1325 -14 122 -14 398 0 520 67 560 338 1070 763 1436 483 416
1076 599 1722 533z"/>
<path d="M2920 4065 c-153 -31 -273 -78 -326 -127 -23 -21 -58 -71 -80 -114
-34 -66 -38 -85 -42 -164 -10 -200 82 -364 376 -673 105 -110 150 -165 173
-212 33 -68 47 -137 32 -157 -25 -33 -22 -48 18 -85 51 -47 122 -146 156 -216
28 -56 52 -209 53 -328 0 -54 -6 -77 -30 -125 -29 -59 -82 -122 -124 -149 -37
-24 -171 -45 -283 -45 -59 1 -223 9 -363 19 l-255 19 -275 70 c-357 92 -443
124 -590 222 -47 31 -112 69 -144 84 l-59 26 -41 -21 c-23 -11 -67 -46 -99
-77 -54 -53 -57 -59 -57 -104 0 -43 -3 -50 -26 -58 -48 -19 -64 -13 -64 23 0
50 28 90 112 162 90 76 112 105 103 135 -9 27 -62 60 -98 60 -33 0 -47 29 -47
95 0 41 3 45 40 66 33 19 40 28 40 54 0 48 -36 74 -137 100 -111 29 -303 50
-366 41 -85 -13 -87 -19 -86 -223 0 -172 1 -178 31 -257 17 -45 34 -85 37 -91
4 -5 20 -44 36 -85 48 -124 76 -159 172 -219 21 -13 72 -62 113 -109 183 -208
292 -312 404 -387 134 -88 262 -158 341 -185 73 -25 295 -66 431 -80 56 -5
144 -16 195 -25 172 -28 617 -16 791 20 191 41 525 153 666 224 125 63 343
283 464 467 70 108 94 153 124 239 l29 80 0 270 c0 315 6 290 -124 467 -93
126 -146 188 -196 228 -43 34 -62 30 -97 -24 -62 -94 -296 -195 -455 -196 -54
0 -73 8 -73 30 0 14 11 19 53 25 177 22 274 56 415 148 84 56 82 75 -15 147
-73 54 -92 78 -93 113 0 21 8 32 29 45 37 21 41 34 41 147 0 90 -11 145 -46
237 -10 26 -15 50 -12 54 4 3 28 -1 54 -10 62 -21 162 -22 170 -1 13 33 -56
169 -126 249 -40 46 -133 110 -203 141 -160 70 -439 87 -667 40z m584 -310
c32 -30 32 -36 0 -69 -31 -30 -35 -31 -74 -11 -41 21 -50 62 -20 87 31 25 62
23 94 -7z"/>
<path d="M3807 3592 c-40 -5 -51 -35 -49 -135 2 -156 42 -197 211 -216 145
-15 469 -23 492 -11 14 8 19 22 19 51 0 37 -3 41 -42 59 -24 11 -52 20 -64 20
-20 0 -110 43 -189 90 -130 77 -234 131 -265 135 -61 10 -84 11 -113 7z m173
-107 c0 -16 -27 -32 -37 -21 -7 7 16 36 28 36 5 0 9 -7 9 -15z"/>
<path d="M1860 2785 c-8 -2 -55 -9 -105 -15 -161 -21 -435 -109 -614 -197
-128 -64 -93 -88 115 -78 83 3 142 1 159 -5 l28 -11 -37 -38 c-35 -36 -37 -41
-38 -107 -1 -38 4 -79 10 -91 23 -42 303 -226 452 -297 55 -26 77 -31 140 -31
68 0 81 3 135 35 49 29 71 52 120 124 33 49 73 98 87 109 53 40 177 30 186
-15 3 -16 -136 -176 -189 -217 -17 -13 -58 -25 -123 -34 -108 -16 -146 -37
-113 -61 21 -16 214 -66 254 -66 33 0 108 38 178 90 63 47 83 70 129 148 21
34 47 67 58 73 29 15 125 6 145 -14 14 -13 14 -20 3 -47 -18 -45 -132 -143
-209 -181 -80 -40 -101 -56 -101 -80 0 -36 37 -43 232 -43 l187 -1 41 40 c107
103 128 167 110 337 -21 199 -68 308 -172 403 -47 44 -65 53 -131 69 -42 10
-87 26 -99 37 -23 19 -23 19 65 18 48 -1 90 1 94 5 11 10 -30 48 -72 67 -22
10 -101 30 -175 45 -127 26 -153 28 -435 30 -165 1 -307 1 -315 -1z"/>
</g>
</svg>
